<?xml version="1.0" encoding="UTF-8"?>
<svg version="1.1" xmlns="http://www.w3.org/2000/svg" width="301" height="250">
<path d="M0 0 C99.33 0 198.66 0 301 0 C301 82.5 301 165 301 250 C201.67 250 102.34 250 0 250 C0 167.5 0 85 0 0 Z " fill="#3C3E41" transform="translate(0,0)"/>
<path d="M0 0 C99.33 0 198.66 0 301 0 C301 34.98 301 69.96 301 106 C201.67 106 102.34 106 0 106 C0 71.02 0 36.04 0 0 Z " fill="#242421" transform="translate(0,144)"/>
<path d="M0 0 C99.33 0 198.66 0 301 0 C301 17.16 301 34.32 301 52 C201.67 52 102.34 52 0 52 C0 34.84 0 17.68 0 0 Z " fill="#3E4041" transform="translate(0,0)"/>
<path d="M0 0 C99.33 0 198.66 0 301 0 C301 12.21 301 24.42 301 37 C201.67 37 102.34 37 0 37 C0 24.79 0 12.58 0 0 Z " fill="#3E3B33" transform="translate(0,213)"/>
<path d="M0 0 C99.33 0 198.66 0 301 0 C301 7.59 301 15.18 301 23 C201.67 23 102.34 23 0 23 C0 15.41 0 7.82 0 0 Z " fill="#211F21" transform="translate(0,190)"/>
<path d="M0 0 C99.33 0 198.66 0 301 0 C301 7.26 301 14.52 301 22 C201.67 22 102.34 22 0 22 C0 14.74 0 7.48 0 0 Z " fill="#46494C" transform="translate(0,122)"/>
<path d="M0 0 C99.33 0 198.66 0 301 0 C301 6.6 301 13.2 301 20 C201.67 20 102.34 20 0 20 C0 13.4 0 6.8 0 0 Z " fill="#252628" transform="translate(0,144)"/>
<path d="M0 0 C99.33 0 198.66 0 301 0 C301 5.61 301 11.22 301 17 C201.67 17 102.34 17 0 17 C0 11.39 0 5.78 0 0 Z " fill="#3C3F41" transform="translate(0,105)"/>
<path d="M0 0 C2.69375203 0.00028305 5.38750135 0.00016552 8.08125305 -0.0004425 C13.81406379 -0.00095996 19.5468629 0.00210395 25.27967072 0.00779533 C33.56774493 0.01601804 41.85581369 0.01853641 50.14389154 0.01978333 C63.59967435 0.02195719 77.055451 0.02857147 90.51123047 0.03808594 C103.56103485 0.04730359 116.61083754 0.05436296 129.66064453 0.05859375 C130.46873807 0.05885647 131.2768316 0.0591192 132.10941282 0.05938988 C136.1644865 0.06069518 140.21956019 0.06195882 144.27463388 0.06320179 C177.77000782 0.0735224 211.26537414 0.0911704 244.76074219 0.11352539 C244.76074219 4.40352539 244.76074219 8.69352539 244.76074219 13.11352539 C145.43074219 13.11352539 46.10074219 13.11352539 -56.23925781 13.11352539 C-56.23925781 9.15352539 -56.23925781 5.19352539 -56.23925781 1.11352539 C-37.48190761 0.32861897 -18.77353622 -0.02822519 0 0 Z " fill="#434546" transform="translate(56.2392578125,38.886474609375)"/>
<path d="M0 0 C99.33 0 198.66 0 301 0 C301 3.96 301 7.92 301 12 C278.58349138 12.20817624 256.16684095 12.39400479 233.75 12.5625 C232.48122568 12.57207426 232.48122568 12.57207426 231.18681955 12.58184195 C175.59934926 12.99975703 120.02481257 12.99841305 64.4375 12.5625 C63.61829763 12.55610205 62.79909527 12.5497041 61.95506859 12.54311228 C41.30319454 12.38144475 20.65152875 12.20112428 0 12 C0 8.04 0 4.08 0 0 Z " fill="#323132" transform="translate(0,213)"/>
<path d="M0 0 C99.33 0 198.66 0 301 0 C301 3.63 301 7.26 301 11 C201.67 11.33 102.34 11.66 0 12 C0 8.04 0 4.08 0 0 Z " fill="#393B3C" transform="translate(0,28)"/>
<path d="M0 0 C99.33 0 198.66 0 301 0 C301 3.63 301 7.26 301 11 C201.67 11 102.34 11 0 11 C0 7.37 0 3.74 0 0 Z " fill="#303336" transform="translate(0,122)"/>
<path d="M0 0 C99.33 0 198.66 0 301 0 C301 3.63 301 7.26 301 11 C201.67 11 102.34 11 0 11 C0 7.37 0 3.74 0 0 Z " fill="#434547" transform="translate(0,69)"/>
<path d="M0 0 C99.33 0 198.66 0 301 0 C301 2.97 301 5.94 301 9 C201.67 9 102.34 9 0 9 C0 6.03 0 3.06 0 0 Z " fill="#303234" transform="translate(0,96)"/>
<path d="M0 0 C99.33 0 198.66 0 301 0 C301 2.97 301 5.94 301 9 C201.67 9 102.34 9 0 9 C0 6.03 0 3.06 0 0 Z " fill="#444648" transform="translate(0,19)"/>
<path d="M0 0 C99.33 0 198.66 0 301 0 C301 2.64 301 5.28 301 8 C201.67 8 102.34 8 0 8 C0 5.36 0 2.72 0 0 Z " fill="#404243" transform="translate(0,52)"/>
<path d="M0 0 C99.33 0 198.66 0 301 0 C301 2.31 301 4.62 301 7 C201.67 7 102.34 7 0 7 C0 4.69 0 2.38 0 0 Z " fill="#424446" transform="translate(0,105)"/>
<path d="M0 0 C99.33 0 198.66 0 301 0 C301 2.31 301 4.62 301 7 C201.67 7 102.34 7 0 7 C0 4.69 0 2.38 0 0 Z " fill="#393B3C" transform="translate(0,12)"/>
<path d="M0 0 C2.69375203 0.00028305 5.38750135 0.00016552 8.08125305 -0.0004425 C13.81406379 -0.00095996 19.5468629 0.00210395 25.27967072 0.00779533 C33.56774493 0.01601804 41.85581369 0.01853641 50.14389154 0.01978333 C63.59967435 0.02195719 77.055451 0.02857147 90.51123047 0.03808594 C103.56103485 0.04730359 116.61083754 0.05436296 129.66064453 0.05859375 C130.46873807 0.05885647 131.2768316 0.0591192 132.10941282 0.05938988 C136.1644865 0.06069518 140.21956019 0.06195882 144.27463388 0.06320179 C177.77000778 0.0735224 211.26537422 0.09109461 244.76074219 0.11352539 C244.76074219 2.09352539 244.76074219 4.07352539 244.76074219 6.11352539 C145.43074219 6.11352539 46.10074219 6.11352539 -56.23925781 6.11352539 C-56.23925781 4.46352539 -56.23925781 2.81352539 -56.23925781 1.11352539 C-37.48301459 0.31812896 -18.77267512 -0.0282239 0 0 Z " fill="#47494B" transform="translate(56.2392578125,38.886474609375)"/>
<path d="M0 0 C99.33 0 198.66 0 301 0 C301 1.65 301 3.3 301 5 C201.67 5 102.34 5 0 5 C0 3.35 0 1.7 0 0 Z " fill="#151414" transform="translate(0,190)"/>
<path d="M0 0 C7.33015618 0.00729023 14.66031046 0.00866254 21.99046975 0.00979571 C35.05414647 0.01196454 48.11781681 0.01856463 61.18149008 0.02809832 C73.84392466 0.03732937 86.50635749 0.04438205 99.16879477 0.04860613 C99.95414027 0.04886885 100.73948577 0.04913158 101.54862962 0.04940226 C105.48992036 0.05070765 109.43121111 0.05197127 113.37250187 0.05321417 C145.8795553 0.063519 178.38660089 0.08107682 210.89364829 0.10353777 C210.89364829 1.75353777 210.89364829 3.40353777 210.89364829 5.10353777 C111.56364829 5.10353777 12.23364829 5.10353777 -90.10635171 5.10353777 C-90.10635171 3.78353777 -90.10635171 2.46353777 -90.10635171 1.10353777 C-60.07852638 -0.10881336 -30.04649043 -0.03072769 0 0 Z " fill="#525558" transform="translate(90.10635171458125,74.89646222814918)"/>
<path d="M0 0 C2.69375203 0.00028305 5.38750135 0.00016552 8.08125305 -0.0004425 C13.81406379 -0.00095996 19.5468629 0.00210395 25.27967072 0.00779533 C33.56774493 0.01601804 41.85581369 0.01853641 50.14389154 0.01978333 C63.59967435 0.02195719 77.055451 0.02857147 90.51123047 0.03808594 C103.56103485 0.04730359 116.61083754 0.05436296 129.66064453 0.05859375 C130.46873807 0.05885647 131.2768316 0.0591192 132.10941282 0.05938988 C136.1644865 0.06069518 140.21956019 0.06195882 144.27463388 0.06320179 C177.77000778 0.0735224 211.26537422 0.09109461 244.76074219 0.11352539 C244.76074219 1.43352539 244.76074219 2.75352539 244.76074219 4.11352539 C145.43074219 4.11352539 46.10074219 4.11352539 -56.23925781 4.11352539 C-56.23925781 3.12352539 -56.23925781 2.13352539 -56.23925781 1.11352539 C-37.48301459 0.31812896 -18.77267512 -0.0282239 0 0 Z " fill="#3C3F42" transform="translate(56.2392578125,100.886474609375)"/>
<path d="M0 0 C18.85415777 -0.03201095 37.70831934 -0.05153753 56.5625 -0.0625 C57.64936332 -0.06315145 57.64936332 -0.06315145 58.75818348 -0.06381607 C114.46523872 -0.09626332 170.16914945 0.14567461 225.875 0.5 C226.81576338 0.50597372 227.75652677 0.51194743 228.72579813 0.51810217 C252.81725014 0.67122791 276.90865017 0.83156772 301 1 C301 1.99 301 2.98 301 4 C201.67 4 102.34 4 0 4 C0 2.68 0 1.36 0 0 Z " fill="#161517" transform="translate(0,205)"/>
<path d="M0 0 C99.33 0 198.66 0 301 0 C301 0.99 301 1.98 301 3 C201.67 3.33 102.34 3.66 0 4 C0 2.68 0 1.36 0 0 Z " fill="#2A2C2D" transform="translate(0,112)"/>
<path d="M0 0 C99.33 0 198.66 0 301 0 C301 0.99 301 1.98 301 3 C201.67 3.33 102.34 3.66 0 4 C0 2.68 0 1.36 0 0 Z " fill="#232526" transform="translate(0,144)"/>
<path d="M0 0 C99.33 0 198.66 0 301 0 C301 0.99 301 1.98 301 3 C278.58349914 3.20885281 256.1668389 3.39400481 233.75 3.5625 C232.48122568 3.57207426 232.48122568 3.57207426 231.18681955 3.58184195 C175.59934926 3.99975703 120.02481257 3.99841305 64.4375 3.5625 C63.61829763 3.55610205 62.79909527 3.5497041 61.95506859 3.54311228 C41.30319682 3.38144477 20.65152031 3.20180986 0 3 C0 2.01 0 1.02 0 0 Z " fill="#282627" transform="translate(0,222)"/>
<path d="M0 0 C99.33 0 198.66 0 301 0 C301 0.99 301 1.98 301 3 C201.67 3.33 102.34 3.66 0 4 C0 2.68 0 1.36 0 0 Z " fill="#292A2C" transform="translate(0,80)"/>
<path d="M0 0 C99.33 0 198.66 0 301 0 C301 0.99 301 1.98 301 3 C201.67 3 102.34 3 0 3 C0 2.01 0 1.02 0 0 Z " fill="#4C4F52" transform="translate(0,141)"/>
<path d="M0 0 C99.33 0 198.66 0 301 0 C301 0.99 301 1.98 301 3 C201.67 3 102.34 3 0 3 C0 2.01 0 1.02 0 0 Z " fill="#262729" transform="translate(0,138)"/>
<path d="M0 0 C99.33 0 198.66 0 301 0 C301 0.99 301 1.98 301 3 C201.67 3 102.34 3 0 3 C0 2.01 0 1.02 0 0 Z " fill="#262729" transform="translate(0,130)"/>
<path d="M0 0 C99.33 0 198.66 0 301 0 C301 0.99 301 1.98 301 3 C201.67 3 102.34 3 0 3 C0 2.01 0 1.02 0 0 Z " fill="#595C5F" transform="translate(0,105)"/>
<path d="M0 0 C99.33 0 198.66 0 301 0 C301 0.99 301 1.98 301 3 C201.67 3 102.34 3 0 3 C0 2.01 0 1.02 0 0 Z " fill="#292A2B" transform="translate(0,66)"/>
<path d="M0 0 C99.33 0 198.66 0 301 0 C301 0.99 301 1.98 301 3 C201.67 3 102.34 3 0 3 C0 2.01 0 1.02 0 0 Z " fill="#5D6061" transform="translate(0,49)"/>
<path d="M0 0 C99.33 0 198.66 0 301 0 C301 0.99 301 1.98 301 3 C201.67 3 102.34 3 0 3 C0 2.01 0 1.02 0 0 Z " fill="#2D2F2F" transform="translate(0,28)"/>
<path d="M0 0 C99.33 0 198.66 0 301 0 C301 0.99 301 1.98 301 3 C201.67 3 102.34 3 0 3 C0 2.01 0 1.02 0 0 Z " fill="#5C5F61" transform="translate(0,25)"/>
<path d="M0 0 C99.33 0 198.66 0 301 0 C301 0.99 301 1.98 301 3 C201.67 3 102.34 3 0 3 C0 2.01 0 1.02 0 0 Z " fill="#535658" transform="translate(0,63)"/>
<path d="M0 0 C99.33 0 198.66 0 301 0 C301 0.99 301 1.98 301 3 C201.67 3 102.34 3 0 3 C0 2.01 0 1.02 0 0 Z " fill="#5A5352" transform="translate(0,225)"/>
<path d="M0 0 C1.04104033 -0.00199105 2.08208067 -0.0039821 3.15466768 -0.00603348 C4.29182416 -0.00312064 5.42898065 -0.0002078 6.60059643 0.00279331 C8.42010186 0.00151167 8.42010186 0.00151167 10.27636498 0.00020415 C13.6399558 -0.0011582 17.00348844 0.00196718 20.36707222 0.00698221 C23.99551175 0.01130045 27.62394949 0.00983931 31.25239086 0.00907993 C37.53781911 0.00855557 43.82323697 0.01169323 50.10866261 0.01731777 C59.19633381 0.02544463 68.284 0.02804921 77.37167444 0.02930576 C92.11580586 0.03149441 106.85993175 0.03814945 121.60406017 0.04760838 C135.92665104 0.05678732 150.2492404 0.0638658 164.57183361 0.06811619 C165.45467068 0.06837891 166.33750776 0.06864164 167.24709747 0.06891232 C171.67602938 0.07021736 176.1049613 0.07148106 180.53389323 0.07272422 C217.27660578 0.08309102 254.01931204 0.10070427 290.76201916 0.12304783 C290.76201916 1.11304783 290.76201916 2.10304783 290.76201916 3.12304783 C191.43201916 3.12304783 92.10201916 3.12304783 -10.23798084 3.12304783 C-10.23798084 2.46304783 -10.23798084 1.80304783 -10.23798084 1.12304783 C-6.76269941 0.33556119 -3.56050245 -0.00150677 0 0 Z " fill="#3D3F43" transform="translate(10.237980842590332,146.87695217132568)"/>
<path d="M0 0 C2.68404744 0.0002831 5.36809217 0.00016541 8.05213928 -0.0004425 C13.76092317 -0.00095964 19.46969538 0.00210071 25.17847633 0.00779533 C33.43178546 0.01602269 41.68508911 0.01853687 49.9384019 0.01978333 C63.33816955 0.02195649 76.73793101 0.0285688 90.13769531 0.03808594 C103.13216115 0.04730545 116.12662529 0.0543639 129.12109375 0.05859375 C130.32835947 0.05898784 130.32835947 0.05898784 131.5600144 0.05938988 C135.59883338 0.06069519 139.63765236 0.06195883 143.67647135 0.06320179 C177.03065662 0.0735202 210.38483431 0.09109041 243.73901367 0.11352539 C243.73901367 1.10352539 243.73901367 2.09352539 243.73901367 3.11352539 C144.40901367 3.11352539 45.07901367 3.11352539 -57.26098633 3.11352539 C-57.26098633 2.45352539 -57.26098633 1.79352539 -57.26098633 1.11352539 C-38.16244072 0.33707295 -19.11522339 -0.02889263 0 0 Z " fill="#575B5D" transform="translate(57.260986328125,114.886474609375)"/>
<path d="M0 0 C2.67434285 0.00028315 5.34868299 0.00016529 8.02302551 -0.0004425 C13.70778256 -0.00095931 19.39252786 0.00209744 25.07728195 0.00779533 C33.295826 0.01602738 41.51436454 0.01853733 49.73291226 0.01978333 C63.07666475 0.02195578 76.42041103 0.0285661 89.76416016 0.03808594 C102.70328745 0.04730733 115.64241304 0.05436484 128.58154297 0.05859375 C129.38313707 0.05885647 130.18473116 0.0591192 131.01061599 0.05938988 C135.03318026 0.0606952 139.05574453 0.06195884 143.07830882 0.06320179 C176.29130545 0.07351798 209.50429446 0.09108618 242.71728516 0.11352539 C242.71728516 1.10352539 242.71728516 2.09352539 242.71728516 3.11352539 C143.38728516 3.11352539 44.05728516 3.11352539 -58.28271484 3.11352539 C-58.28271484 2.45352539 -58.28271484 1.79352539 -58.28271484 1.11352539 C-38.84708627 0.35471756 -19.4526303 -0.02956075 0 0 Z " fill="#585C5E" transform="translate(58.28271484375,8.886474609375)"/>
<path d="M0 0 C2.70345661 0.000283 5.40691053 0.00016564 8.11036682 -0.0004425 C13.8672044 -0.00096029 19.62403042 0.00210716 25.3808651 0.00779533 C33.7037044 0.01601344 42.02653827 0.01853596 50.34938119 0.01978333 C63.86117915 0.02195789 77.37297098 0.02857412 90.88476562 0.03808594 C103.98990855 0.04730174 117.09504979 0.05436204 130.20019531 0.05859375 C131.01153857 0.05885647 131.82288182 0.0591192 132.65881123 0.05938988 C136.73013962 0.06069517 140.80146801 0.06195881 144.87279642 0.06320179 C178.50935895 0.07352459 212.14591407 0.09109877 245.7824707 0.11352539 C245.7824707 1.10352539 245.7824707 2.09352539 245.7824707 3.11352539 C146.4524707 3.11352539 47.1224707 3.11352539 -55.2175293 3.11352539 C-55.2175293 2.45352539 -55.2175293 1.79352539 -55.2175293 1.11352539 C-36.80274991 0.29744155 -18.43139142 -0.02756414 0 0 Z " fill="#54575D" transform="translate(55.217529296875,92.886474609375)"/>
<path d="M0 0 C99.33 0 198.66 0 301 0 C301 0.99 301 1.98 301 3 C273.12387464 3.02371667 245.24775085 3.04116414 217.37161732 3.05181217 C204.41839566 3.05689506 191.46518045 3.06380498 178.51196289 3.07543945 C119.00003106 3.1278614 59.50405367 3.0452966 0 2 C0 1.34 0 0.68 0 0 Z " fill="#5B5F60" transform="translate(0,31)"/>
<path d="M0 0 C0.82560031 0.00042423 1.65120063 0.00084846 2.50181913 0.00128555 C23.33455838 0.01217572 44.16727994 0.0319112 65 0.0625 C65 1.0525 65 2.0425 65 3.0625 C-34.33 3.0625 -133.66 3.0625 -236 3.0625 C-236 2.4025 -236 1.7425 -236 1.0625 C-213.77091012 0.88516377 -191.54174107 0.7196876 -169.3125 0.5625 C-168.47303329 0.55655146 -167.63356659 0.55060292 -166.7686615 0.54447412 C-111.17874491 0.15133883 -55.5912891 -0.02943185 0 0 Z " fill="#423F41" transform="translate(236,218.9375)"/>
<path d="M0 0 C3.36657545 0.00687863 6.73315135 0.00985485 10.09973192 0.01312304 C51.18527318 0.0553696 92.27038739 0.29948434 133.35512257 0.54409981 C143.84025876 0.60643914 154.32541022 0.66601996 164.81056309 0.72547626 C186.23640234 0.84702837 207.66222232 0.97170668 229.08802986 1.09871864 C229.08802986 1.75871864 229.08802986 2.41871864 229.08802986 3.09871864 C129.75802986 3.09871864 30.42802986 3.09871864 -71.91197014 3.09871864 C-71.91197014 2.43871864 -71.91197014 1.77871864 -71.91197014 1.09871864 C-47.93596695 0.35503853 -23.98726229 -0.0546455 0 0 Z " fill="#444649" transform="translate(71.9119701385498,76.90128135681152)"/>
<path d="M0 0 C6.6 0 13.2 0 20 0 C20 0.66 20 1.32 20 2 C21.98 2 23.96 2 26 2 C26 2.33 26 2.66 26 3 C17.42 3 8.84 3 0 3 C0 2.01 0 1.02 0 0 Z " fill="#2C2C2A" transform="translate(0,37)"/>
<path d="M0 0 C4.29 0 8.58 0 13 0 C13 0.66 13 1.32 13 2 C14.32 2.33 15.64 2.66 17 3 C11.39 3 5.78 3 0 3 C0 2.01 0 1.02 0 0 Z " fill="#292829" transform="translate(0,57)"/>
</svg>
